<?xml version="1.0" encoding="UTF-8"?>
<svg xmlns="http://www.w3.org/2000/svg" xmlns:xlink="http://www.w3.org/1999/xlink" width="40px" height="40px" viewBox="0 0 40 40" version="1.1">
<g id="surface1">
<path style=" stroke:none;fill-rule:nonzero;fill:rgb(0%,0%,0%);fill-opacity:1;" d="M 33.21875 6.703125 C 29.859375 3.339844 25.210938 1.261719 20.082031 1.261719 C 9.820312 1.261719 1.5 9.578125 1.5 19.84375 C 1.5 23.257812 2.421875 26.457031 4.027344 29.207031 L 3.980469 29.117188 L 1.34375 38.746094 L 11.191406 36.164062 C 13.757812 37.585938 16.816406 38.421875 20.070312 38.421875 L 20.078125 38.421875 C 30.339844 38.421875 38.65625 30.101562 38.65625 19.839844 C 38.65625 14.710938 36.578125 10.066406 33.21875 6.703125 Z M 20.078125 35.285156 L 20.070312 35.285156 C 17.171875 35.285156 14.457031 34.484375 12.140625 33.09375 L 12.210938 33.132812 L 11.648438 32.796875 L 5.804688 34.332031 L 7.363281 28.632812 L 6.996094 28.050781 C 5.515625 25.722656 4.636719 22.886719 4.636719 19.84375 C 4.636719 11.316406 11.546875 4.402344 20.078125 4.402344 C 28.605469 4.402344 35.515625 11.316406 35.515625 19.84375 C 35.515625 28.371094 28.605469 35.285156 20.078125 35.285156 Z M 28.546875 23.722656 C 28.082031 23.488281 25.800781 22.367188 25.375 22.210938 C 24.949219 22.054688 24.640625 21.980469 24.328125 22.445312 C 24.023438 22.910156 23.132812 23.953125 22.859375 24.265625 C 22.589844 24.574219 22.320312 24.613281 21.855469 24.382812 C 20.417969 23.796875 19.183594 23.023438 18.109375 22.066406 L 18.121094 22.078125 C 17.121094 21.152344 16.265625 20.09375 15.574219 18.925781 L 15.539062 18.859375 C 15.269531 18.398438 15.511719 18.144531 15.742188 17.914062 C 15.953125 17.707031 16.207031 17.371094 16.4375 17.101562 C 16.621094 16.878906 16.777344 16.621094 16.894531 16.347656 L 16.902344 16.328125 C 16.957031 16.21875 16.988281 16.089844 16.988281 15.957031 C 16.988281 15.792969 16.941406 15.640625 16.863281 15.511719 L 16.863281 15.515625 C 16.746094 15.28125 15.820312 12.996094 15.433594 12.066406 C 15.054688 11.160156 14.671875 11.285156 14.390625 11.269531 C 14.117188 11.257812 13.808594 11.253906 13.5 11.253906 C 13.003906 11.265625 12.566406 11.488281 12.265625 11.832031 L 12.261719 11.835938 C 11.261719 12.789062 10.636719 14.128906 10.636719 15.613281 C 10.636719 15.648438 10.636719 15.679688 10.640625 15.714844 L 10.640625 15.707031 C 10.800781 17.542969 11.488281 19.1875 12.546875 20.53125 L 12.53125 20.511719 C 14.539062 23.484375 17.210938 25.863281 20.347656 27.464844 L 20.464844 27.519531 C 21.148438 27.828125 22.027344 28.160156 22.921875 28.445312 L 23.109375 28.496094 C 23.664062 28.671875 24.296875 28.773438 24.957031 28.773438 C 25.335938 28.773438 25.710938 28.738281 26.070312 28.675781 L 26.03125 28.679688 C 27.367188 28.402344 28.476562 27.59375 29.152344 26.492188 L 29.164062 26.472656 C 29.371094 26.015625 29.488281 25.480469 29.488281 24.921875 C 29.488281 24.6875 29.46875 24.460938 29.429688 24.242188 L 29.433594 24.265625 C 29.320312 24.074219 29.011719 23.957031 28.546875 23.722656 Z M 28.546875 23.722656 "/>
</g>
</svg>
